<svg width="205" height="205" viewBox="0 0 205 205" fill="none" xmlns="http://www.w3.org/2000/svg">
<g filter="url(#filter0_d_15_18)">
<path d="M87.7778 16.7222C87.7778 16.7222 87.7778 7 97.5 7C107.222 7 107.222 16.7222 107.222 16.7222V26.4444C107.222 26.4444 107.222 36.1667 97.5 36.1667C87.7778 36.1667 87.7778 26.4444 87.7778 26.4444V16.7222ZM175.278 84.7778C175.278 84.7778 185 84.7778 185 94.5C185 104.222 175.278 104.222 175.278 104.222H165.556C165.556 104.222 155.833 104.222 155.833 94.5C155.833 84.7778 165.556 84.7778 165.556 84.7778H175.278ZM29.4444 84.7778C29.4444 84.7778 39.1667 84.7778 39.1667 94.5C39.1667 104.222 29.4444 104.222 29.4444 104.222H19.7222C19.7222 104.222 10 104.222 10 94.5C10 84.7778 19.7222 84.7778 19.7222 84.7778H29.4444ZM54.3382 42.4521C54.3382 42.4521 61.2118 49.3257 54.3382 56.1993C47.4646 63.0729 40.591 56.1993 40.591 56.1993L33.7125 49.3306C33.7125 49.3306 26.8389 42.4569 33.7125 35.5785C40.591 28.7049 47.4646 35.5785 47.4646 35.5785L54.3382 42.4521ZM156.422 144.535C156.422 144.535 163.295 151.409 156.422 158.283C149.548 165.156 142.674 158.283 142.674 158.283L135.801 151.409C135.801 151.409 128.927 144.535 135.801 137.662C142.674 130.788 149.548 137.662 149.548 137.662L156.422 144.535ZM154.414 56.1993C154.414 56.1993 147.54 63.0729 140.667 56.1993C133.793 49.3257 140.667 42.4521 140.667 42.4521L147.54 35.5785C147.54 35.5785 154.414 28.7049 161.288 35.5785C168.161 42.4521 161.288 49.3257 161.288 49.3257L154.414 56.1993ZM52.3306 158.283C52.3306 158.283 45.4569 165.156 38.5833 158.283C31.7097 151.409 38.5833 144.535 38.5833 144.535L45.4569 137.662C45.4569 137.662 52.3306 130.788 59.2042 137.662C66.0778 144.535 59.2042 151.409 59.2042 151.409L52.3306 158.283ZM87.7778 162.556C87.7778 162.556 87.7778 152.833 97.5 152.833C107.222 152.833 107.222 162.556 107.222 162.556V172.278C107.222 172.278 107.222 182 97.5 182C87.7778 182 87.7778 172.278 87.7778 172.278V162.556Z" fill="#FFAC33"/>
<path d="M97.5 143.111C124.347 143.111 146.111 121.347 146.111 94.5C146.111 67.6528 124.347 45.8889 97.5 45.8889C70.6529 45.8889 48.8889 67.6528 48.8889 94.5C48.8889 121.347 70.6529 143.111 97.5 143.111Z" fill="#FFAC33"/>
</g>
<defs>
<filter id="filter0_d_15_18" x="0" y="0" width="205" height="205" filterUnits="userSpaceOnUse" color-interpolation-filters="sRGB">
<feFlood flood-opacity="0" result="BackgroundImageFix"/>
<feColorMatrix in="SourceAlpha" type="matrix" values="0 0 0 0 0 0 0 0 0 0 0 0 0 0 0 0 0 0 127 0" result="hardAlpha"/>
<feOffset dx="5" dy="8"/>
<feGaussianBlur stdDeviation="7.5"/>
<feComposite in2="hardAlpha" operator="out"/>
<feColorMatrix type="matrix" values="0 0 0 0 0 0 0 0 0 0 0 0 0 0 0 0 0 0 0.31 0"/>
<feBlend mode="normal" in2="BackgroundImageFix" result="effect1_dropShadow_15_18"/>
<feBlend mode="normal" in="SourceGraphic" in2="effect1_dropShadow_15_18" result="shape"/>
</filter>
</defs>
</svg>
