<svg width="205" height="205" viewBox="0 0 205 205" fill="none" xmlns="http://www.w3.org/2000/svg">
<g filter="url(#filter0_d_5_2)">
<path d="M78.0556 16.7222C78.0556 16.7222 78.0556 7 87.7778 7C97.5 7 97.5 16.7222 97.5 16.7222V26.4444C97.5 26.4444 97.5 36.1667 87.7778 36.1667C78.0556 36.1667 78.0556 26.4444 78.0556 26.4444V16.7222ZM155.833 75.0556C155.833 75.0556 165.556 75.0556 165.556 84.7778C165.556 94.5 155.833 94.5 155.833 94.5H146.111C146.111 94.5 136.389 94.5 136.389 84.7778C136.389 75.0556 146.111 75.0556 146.111 75.0556H155.833ZM29.4444 75.0556C29.4444 75.0556 39.1667 75.0556 39.1667 84.7778C39.1667 94.5 29.4444 94.5 29.4444 94.5H19.7222C19.7222 94.5 10 94.5 10 84.7778C10 75.0556 19.7222 75.0556 19.7222 75.0556H29.4444ZM48.2667 36.3757C48.2667 36.3757 55.1403 43.2493 48.2667 50.1229C41.3931 56.9965 34.5194 50.1229 34.5194 50.1229L27.641 43.2542C27.641 43.2542 20.7674 36.3806 27.641 29.5021C34.5194 22.6285 41.3931 29.5021 41.3931 29.5021L48.2667 36.3757ZM141.041 50.1229C141.041 50.1229 134.167 56.9965 127.294 50.1229C120.42 43.2493 127.294 36.3757 127.294 36.3757L134.167 29.5021C134.167 29.5021 141.041 22.6285 147.915 29.5021C154.788 36.3757 147.915 43.2493 147.915 43.2493L141.041 50.1229Z" fill="#FFAC33"/>
<path d="M87.7778 128.528C111.94 128.528 131.528 108.94 131.528 84.7778C131.528 60.6153 111.94 41.0278 87.7778 41.0278C63.6153 41.0278 44.0278 60.6153 44.0278 84.7778C44.0278 108.94 63.6153 128.528 87.7778 128.528Z" fill="#FFAC33"/>
<path d="M146.111 104.222C142.101 104.222 138.236 104.83 134.595 105.958C132.436 99.7736 128.407 94.4135 123.068 90.6191C117.729 86.8246 111.342 84.7834 104.792 84.7778C89.9944 84.7778 77.6083 94.9667 74.1715 108.699C70.4033 105.809 65.7905 104.236 61.0417 104.222C55.2401 104.222 49.6761 106.527 45.5737 110.629C41.4713 114.732 39.1667 120.296 39.1667 126.097C39.1667 129.033 39.7646 131.824 40.8146 134.381C38.6999 133.756 36.5102 133.423 34.3056 133.389C20.8792 133.389 10 144.268 10 157.694C10 171.121 20.8792 182 34.3056 182H146.111C156.425 182 166.317 177.903 173.61 170.61C180.903 163.317 185 153.425 185 143.111C185 132.797 180.903 122.906 173.61 115.613C166.317 108.319 156.425 104.222 146.111 104.222Z" fill="white"/>
</g>
<defs>
<filter id="filter0_d_5_2" x="0" y="0" width="205" height="205" filterUnits="userSpaceOnUse" color-interpolation-filters="sRGB">
<feFlood flood-opacity="0" result="BackgroundImageFix"/>
<feColorMatrix in="SourceAlpha" type="matrix" values="0 0 0 0 0 0 0 0 0 0 0 0 0 0 0 0 0 0 127 0" result="hardAlpha"/>
<feOffset dx="5" dy="8"/>
<feGaussianBlur stdDeviation="7.5"/>
<feComposite in2="hardAlpha" operator="out"/>
<feColorMatrix type="matrix" values="0 0 0 0 0 0 0 0 0 0 0 0 0 0 0 0 0 0 0.31 0"/>
<feBlend mode="normal" in2="BackgroundImageFix" result="effect1_dropShadow_5_2"/>
<feBlend mode="normal" in="SourceGraphic" in2="effect1_dropShadow_5_2" result="shape"/>
</filter>
</defs>
</svg>
