<svg width="255" height="199" viewBox="0 0 255 199" fill="none" xmlns="http://www.w3.org/2000/svg">
<g filter="url(#filter0_d_15_29)">
<path d="M143.778 26.4C139.836 26.4 136.038 27.0063 132.459 28.1315C130.337 21.9615 126.378 16.6137 121.13 12.8279C115.882 9.04218 109.605 7.00561 103.167 7C88.6231 7 76.4493 17.1656 73.0714 30.8668C69.3679 27.9834 64.8341 26.4141 60.1667 26.4C54.4645 26.4 48.9959 28.6994 44.9639 32.7924C40.9318 36.8854 38.6667 42.4366 38.6667 48.225C38.6667 51.1544 39.2543 53.9383 40.2863 56.4894C38.2079 55.8666 36.0557 55.5337 33.8889 55.5C20.6927 55.5 10 66.3543 10 79.75C10 93.1457 20.6927 104 33.8889 104H143.778C153.915 104 163.637 99.9121 170.805 92.6357C177.973 85.3593 182 75.4904 182 65.2C182 54.9096 177.973 45.0407 170.805 37.7643C163.637 30.4878 153.915 26.4 143.778 26.4Z" fill="#797979"/>
<path d="M206.576 53.933C204.304 41.7353 198.429 30.6315 189.809 22.2452C181.189 13.8589 170.276 8.62994 158.666 7.32285C147.057 6.01577 135.359 8.69911 125.283 14.9805C115.208 21.262 107.283 30.8121 102.668 42.2344C97.4918 41.5993 92.2487 42.0961 87.2594 43.6945C82.27 45.2929 77.6395 47.9592 73.6512 51.5301C69.6629 55.1011 66.4008 59.5015 64.0646 64.4621C61.7284 69.4226 60.3673 74.8389 60.0647 80.3793C59.762 85.9197 60.5241 91.4675 62.3044 96.6833C64.0846 101.899 66.8455 106.673 70.418 110.712C73.9906 114.752 78.2995 117.972 83.0812 120.176C87.8628 122.38 93.0164 123.522 98.2265 123.53H202.146C210.471 123.54 218.49 120.179 224.576 114.128C230.662 108.077 234.362 99.7873 234.925 90.9392C235.488 82.091 232.873 73.3456 227.609 66.4745C222.346 59.6033 214.827 55.1201 206.576 53.933Z" fill="#373737"/>
<path d="M102.457 130.423C101.914 129.922 101.283 129.539 100.602 129.296C99.225 128.81 97.7233 128.926 96.4268 129.618C95.1304 130.311 94.1453 131.524 93.6882 132.99L88.2188 150.468C87.8227 151.915 87.9682 153.469 88.6247 154.803C89.2813 156.138 90.3978 157.15 91.7399 157.626C93.0819 158.103 94.5451 158.007 95.8222 157.359C97.0993 156.711 98.0909 155.561 98.5888 154.15L104.058 136.672C104.286 135.946 104.378 135.179 104.328 134.416C104.277 133.652 104.086 132.906 103.765 132.221C103.444 131.536 102.999 130.925 102.457 130.423Z" fill="#007BFF" fill-opacity="0.87"/>
<path d="M168.09 130.423C167.547 129.922 166.917 129.539 166.235 129.296C164.858 128.81 163.357 128.926 162.06 129.618C160.764 130.311 159.779 131.524 159.321 132.99L153.852 150.468C153.456 151.915 153.601 153.469 154.258 154.803C154.915 156.138 156.031 157.15 157.373 157.626C158.715 158.103 160.178 158.007 161.455 157.359C162.733 156.711 163.724 155.561 164.222 154.15L169.692 136.672C169.92 135.946 170.011 135.179 169.961 134.416C169.911 133.652 169.719 132.906 169.398 132.221C169.077 131.536 168.633 130.925 168.09 130.423Z" fill="#007BFF" fill-opacity="0.87"/>
<path d="M129.804 147.901C129.261 147.4 128.631 147.017 127.949 146.774C126.572 146.288 125.07 146.404 123.774 147.096C122.478 147.789 121.492 149.002 121.035 150.468L115.566 167.946C115.17 169.393 115.315 170.947 115.972 172.281C116.628 173.616 117.745 174.628 119.087 175.104C120.429 175.581 121.892 175.485 123.169 174.837C124.446 174.189 125.438 173.039 125.936 171.628L131.405 154.15C131.634 153.424 131.725 152.657 131.675 151.894C131.624 151.13 131.433 150.384 131.112 149.699C130.791 149.014 130.347 148.403 129.804 147.901Z" fill="#007BFF" fill-opacity="0.87"/>
<path d="M195.437 147.901C194.894 147.4 194.264 147.017 193.582 146.774C192.205 146.288 190.704 146.404 189.407 147.096C188.111 147.789 187.126 149.002 186.669 150.468L181.199 167.946C180.94 168.68 180.823 169.461 180.854 170.244C180.885 171.027 181.065 171.796 181.381 172.503C181.698 173.21 182.145 173.843 182.696 174.362C183.247 174.881 183.891 175.276 184.589 175.524C185.287 175.772 186.025 175.867 186.758 175.804C187.491 175.741 188.205 175.521 188.857 175.157C189.509 174.794 190.085 174.294 190.551 173.687C191.017 173.081 191.363 172.38 191.569 171.628L197.039 154.15C197.267 153.424 197.358 152.657 197.308 151.894C197.258 151.13 197.067 150.384 196.746 149.699C196.425 149.014 195.98 148.403 195.437 147.901Z" fill="#007BFF" fill-opacity="0.87"/>
</g>
<defs>
<filter id="filter0_d_15_29" x="0" y="0" width="255" height="198.823" filterUnits="userSpaceOnUse" color-interpolation-filters="sRGB">
<feFlood flood-opacity="0" result="BackgroundImageFix"/>
<feColorMatrix in="SourceAlpha" type="matrix" values="0 0 0 0 0 0 0 0 0 0 0 0 0 0 0 0 0 0 127 0" result="hardAlpha"/>
<feOffset dx="5" dy="8"/>
<feGaussianBlur stdDeviation="7.5"/>
<feComposite in2="hardAlpha" operator="out"/>
<feColorMatrix type="matrix" values="0 0 0 0 0 0 0 0 0 0 0 0 0 0 0 0 0 0 0.31 0"/>
<feBlend mode="normal" in2="BackgroundImageFix" result="effect1_dropShadow_15_29"/>
<feBlend mode="normal" in="SourceGraphic" in2="effect1_dropShadow_15_29" result="shape"/>
</filter>
</defs>
</svg>
