<svg width="210" height="199" viewBox="0 0 210 199" fill="none" xmlns="http://www.w3.org/2000/svg">
<g filter="url(#filter0_dd_24_42)">
<mask id="mask0_24_42" style="mask-type:luminance" maskUnits="userSpaceOnUse" x="0" y="0" width="210" height="136">
<path d="M0 0H210V135.227H0V0Z" fill="white"/>
</mask>
<g mask="url(#mask0_24_42)">
<g clip-path="url(#clip0_24_42)">
<path d="M105 166.162C124.028 166.162 139.453 149.542 139.453 129.04C139.453 108.539 124.028 91.9192 105 91.9192C85.9721 91.9192 70.5469 108.539 70.5469 129.04C70.5469 149.542 85.9721 166.162 105 166.162Z" fill="url(#paint0_linear_24_42)" stroke="#F8AF18" stroke-width="0.1875" stroke-miterlimit="10"/>
<path d="M142.79 88.3237L157.204 72.7933M52.7956 185.288L67.2098 169.757M158.48 129.04H178.782M31.2178 129.04L51.5775 129.04M105.058 71.4183V49.5445M105.058 208.599L105.058 186.662M67.2098 88.3237L52.7956 72.7933M157.204 185.288L142.79 169.757" stroke="#FBBF24" stroke-width="0.75" stroke-miterlimit="10" stroke-linecap="round"/>
</g>
</g>
<path d="M47.2812 172H129.312" stroke="url(#paint1_linear_24_42)" stroke-width="7" stroke-miterlimit="10" stroke-linecap="round"/>
<path d="M63.6875 150.788H145.719" stroke="url(#paint2_linear_24_42)" stroke-width="7" stroke-miterlimit="10" stroke-linecap="round"/>
</g>
<defs>
<filter id="filter0_dd_24_42" x="16.25" y="37.1919" width="187.5" height="161.308" filterUnits="userSpaceOnUse" color-interpolation-filters="sRGB">
<feFlood flood-opacity="0" result="BackgroundImageFix"/>
<feColorMatrix in="SourceAlpha" type="matrix" values="0 0 0 0 0 0 0 0 0 0 0 0 0 0 0 0 0 0 127 0" result="hardAlpha"/>
<feOffset dx="5" dy="8"/>
<feGaussianBlur stdDeviation="7.5"/>
<feComposite in2="hardAlpha" operator="out"/>
<feColorMatrix type="matrix" values="0 0 0 0 0 0 0 0 0 0 0 0 0 0 0 0 0 0 0.31 0"/>
<feBlend mode="normal" in2="BackgroundImageFix" result="effect1_dropShadow_24_42"/>
<feColorMatrix in="SourceAlpha" type="matrix" values="0 0 0 0 0 0 0 0 0 0 0 0 0 0 0 0 0 0 127 0" result="hardAlpha"/>
<feOffset dx="5" dy="8"/>
<feGaussianBlur stdDeviation="7.5"/>
<feComposite in2="hardAlpha" operator="out"/>
<feColorMatrix type="matrix" values="0 0 0 0 0 0 0 0 0 0 0 0 0 0 0 0 0 0 0.31 0"/>
<feBlend mode="normal" in2="effect1_dropShadow_24_42" result="effect2_dropShadow_24_42"/>
<feBlend mode="normal" in="SourceGraphic" in2="effect2_dropShadow_24_42" result="shape"/>
</filter>
<linearGradient id="paint0_linear_24_42" x1="87.7734" y1="96.8687" x2="126.225" y2="158.727" gradientUnits="userSpaceOnUse">
<stop stop-color="#FBBF24"/>
<stop offset="0.5" stop-color="#FBBF24"/>
<stop offset="1" stop-color="#F59E0B"/>
</linearGradient>
<linearGradient id="paint1_linear_24_42" x1="-nan" y1="-nan" x2="-nan" y2="-nan" gradientUnits="userSpaceOnUse">
<stop stop-color="#D4D7DD"/>
<stop offset="0.5" stop-color="#D4D7DD"/>
<stop offset="1" stop-color="#BEC1C6"/>
</linearGradient>
<linearGradient id="paint2_linear_24_42" x1="-nan" y1="-nan" x2="-nan" y2="-nan" gradientUnits="userSpaceOnUse">
<stop stop-color="#D4D7DD"/>
<stop offset="0.5" stop-color="#D4D7DD"/>
<stop offset="1" stop-color="#BEC1C6"/>
</linearGradient>
<clipPath id="clip0_24_42">
<rect width="157.5" height="169.697" fill="white" transform="translate(26.25 44.1919)"/>
</clipPath>
</defs>
</svg>
