<svg width="60" height="76" viewBox="0 0 60 76" fill="none" xmlns="http://www.w3.org/2000/svg">
<g filter="url(#filter0_d_4_47)">
<path d="M42.3537 29.6097L27.8528 6.51842C27.6424 6.22313 27.3645 5.9824 27.0422 5.8163C26.7199 5.6502 26.3626 5.56354 26 5.56354C25.6374 5.56354 25.2801 5.6502 24.9578 5.8163C24.6355 5.9824 24.3576 6.22313 24.1472 6.51842L9.58063 29.7212C7.55863 32.9855 6.43149 36.7245 6.3125 40.5625C6.3125 45.7839 8.38671 50.7915 12.0788 54.4836C15.771 58.1758 20.7786 60.25 26 60.25C31.2214 60.25 36.229 58.1758 39.9212 54.4836C43.6133 50.7915 45.6875 45.7839 45.6875 40.5625C45.5621 36.6814 44.4119 32.9025 42.3537 29.6097ZM26 55.875C21.9406 55.8692 18.0492 54.2541 15.1788 51.3837C12.3084 48.5133 10.6933 44.6218 10.6875 40.5625C10.806 37.5038 11.7247 34.5298 13.3519 31.9372L15.3972 28.6778L37.4341 50.7147C36.0025 52.3359 34.2429 53.6345 32.2717 54.5245C30.3006 55.4145 28.1628 55.8734 26 55.875Z" fill="white"/>
</g>
<defs>
<filter id="filter0_d_4_47" x="0.3125" y="0.563538" width="59.375" height="74.6864" filterUnits="userSpaceOnUse" color-interpolation-filters="sRGB">
<feFlood flood-opacity="0" result="BackgroundImageFix"/>
<feColorMatrix in="SourceAlpha" type="matrix" values="0 0 0 0 0 0 0 0 0 0 0 0 0 0 0 0 0 0 127 0" result="hardAlpha"/>
<feOffset dx="4" dy="5"/>
<feGaussianBlur stdDeviation="5"/>
<feComposite in2="hardAlpha" operator="out"/>
<feColorMatrix type="matrix" values="0 0 0 0 0 0 0 0 0 0 0 0 0 0 0 0 0 0 0.24 0"/>
<feBlend mode="normal" in2="BackgroundImageFix" result="effect1_dropShadow_4_47"/>
<feBlend mode="normal" in="SourceGraphic" in2="effect1_dropShadow_4_47" result="shape"/>
</filter>
</defs>
</svg>
