<svg width="260" height="179" viewBox="0 0 260 179" fill="none" xmlns="http://www.w3.org/2000/svg">
<g filter="url(#filter0_d_15_21)">
<path opacity="0.5" d="M161.002 155C188.617 155 211 131.616 211 102.765C211 79.8992 196.939 60.465 177.356 53.3887C174.574 27.2945 153.381 7 127.665 7C100.05 7 77.6675 30.384 77.6675 59.2347C77.6675 65.6172 78.7613 71.7223 80.765 77.3833C78.3718 76.8941 75.94 76.6463 73.5025 76.6432C52.7912 76.6525 36 94.1905 36 115.826C36 137.462 52.7912 155 73.5025 155H161.002Z" fill="#CCCCCC"/>
<path d="M91.2525 155.5C109.199 155.5 123.75 140.885 123.75 122.847C123.75 108.565 114.606 96.4202 101.875 91.9895C100.081 75.6817 86.3 63 69.5875 63C51.6325 63 37.0813 77.615 37.0813 95.6525C37.0813 99.63 37.7987 103.46 39.0937 106.993C37.5352 106.688 35.9537 106.534 34.3687 106.53C20.92 106.53 10 117.483 10 131.015C10 144.548 20.9113 155.5 34.3775 155.5H91.2525Z" fill="#F5F5F5"/>
<path d="M201.778 77.4C197.836 77.4 194.038 78.0063 190.459 79.1315C188.337 72.9615 184.378 67.6137 179.13 63.8279C173.882 60.0422 167.605 58.0056 161.167 58C146.623 58 134.449 68.1656 131.071 81.8668C127.368 78.9834 122.834 77.4141 118.167 77.4C112.465 77.4 106.996 79.6994 102.964 83.7924C98.9318 87.8854 96.6667 93.4366 96.6667 99.225C96.6667 102.154 97.2543 104.938 98.2863 107.489C96.2079 106.867 94.0557 106.534 91.8889 106.5C78.6927 106.5 68 117.354 68 130.75C68 144.146 78.6927 155 91.8889 155H201.778C211.915 155 221.637 150.912 228.805 143.636C235.973 136.359 240 126.49 240 116.2C240 105.91 235.973 96.0407 228.805 88.7643C221.637 81.4878 211.915 77.4 201.778 77.4Z" fill="#C0C0C0"/>
</g>
<defs>
<filter id="filter0_d_15_21" x="0" y="0" width="260" height="178.5" filterUnits="userSpaceOnUse" color-interpolation-filters="sRGB">
<feFlood flood-opacity="0" result="BackgroundImageFix"/>
<feColorMatrix in="SourceAlpha" type="matrix" values="0 0 0 0 0 0 0 0 0 0 0 0 0 0 0 0 0 0 127 0" result="hardAlpha"/>
<feOffset dx="5" dy="8"/>
<feGaussianBlur stdDeviation="7.5"/>
<feComposite in2="hardAlpha" operator="out"/>
<feColorMatrix type="matrix" values="0 0 0 0 0 0 0 0 0 0 0 0 0 0 0 0 0 0 0.31 0"/>
<feBlend mode="normal" in2="BackgroundImageFix" result="effect1_dropShadow_15_21"/>
<feBlend mode="normal" in="SourceGraphic" in2="effect1_dropShadow_15_21" result="shape"/>
</filter>
</defs>
</svg>
