<svg width="205" height="205" viewBox="0 0 205 205" fill="none" xmlns="http://www.w3.org/2000/svg">
<g filter="url(#filter0_d_15_35)">
<path d="M160.889 67.5017C160.889 67.5017 163.405 18.5591 125.942 8.8675C82.6292 -2.33842 74.1011 40.5469 74.1011 40.5469C74.1011 40.5469 57.2059 37.2306 46.6884 49.0574C37.8678 58.9761 38.7016 68.6829 38.7016 68.6829C38.7016 68.6829 27.0577 66.0783 17.9153 74.3616C8.77284 82.6449 10.1479 90.4284 10.1479 90.4284L37.3265 101.301C37.3265 101.301 174.58 102.013 175.268 101.544C175.955 101.074 184.41 87.3544 184.41 87.3544C184.41 87.3544 183.035 75.5276 175.048 70.8029C167.047 66.0783 160.889 67.5017 160.889 67.5017Z" fill="#707070"/>
<path d="M24.3085 108.63C31.1544 108.873 75.9305 109.812 103.094 109.569C130.259 109.327 171.568 109.781 177.302 106.98C181.793 104.784 184.47 101.15 184.894 96.0616C185.303 91.2006 184.396 87.3543 184.396 87.3543C184.396 87.3543 178.004 92.1395 165.892 92.3212C158.359 92.4272 143.058 91.14 146.027 88.3083C146.861 87.5057 158.695 78.223 158.125 69.6368C157.993 67.6076 147.388 77.6778 137.338 81.933C127.289 86.1882 117.752 89.4743 104.47 88.596C93.2792 87.8388 88.4227 83.1293 88.4227 83.1293C88.4227 83.1293 83.025 89.6863 66.8026 91.0946C50.5803 92.5181 47.0842 86.2034 47.0842 86.2034C47.0842 86.2034 39.229 92.3515 26.0346 92.1698C12.8695 91.9578 10.2804 87.0514 10.2804 87.0514C10.2804 87.0514 9.037 95.789 11.787 100.892C14.5956 106.086 19.7007 108.479 24.3085 108.63Z" fill="#95A6AA"/>
<path d="M105.844 120.927C103.343 120.018 94.4196 127.332 90.3969 134.555C86.3596 141.809 88.9926 147.109 93.3078 149.29C98.1643 151.743 105.156 150.229 107.146 143.081C109.106 136.009 108.535 121.911 105.844 120.927ZM58.5519 117.323C56.2846 116.49 48.9268 123.562 45.6208 127.378C41.1886 132.511 37.7657 142.082 46.1767 145.958C54.6463 149.85 60.1464 143.475 60.5706 134.661C60.9802 126.454 60.4243 118.019 58.5519 117.323ZM76.4126 151.334C73.999 149.986 63.8619 159.299 60.6291 164.857C57.4109 170.414 57.6157 177.547 64.1983 180.469C70.7809 183.392 76.5881 179.652 77.8023 169.915C78.6507 163.009 78.7384 152.636 76.4126 151.334ZM125.431 152.137C123.69 151.122 111.637 160.753 108.93 167.764C103.562 181.681 121.905 187.89 126.074 174.806C128.503 167.174 127.581 153.394 125.431 152.137ZM155.403 122.138C153.019 120.624 142.999 129.165 139.664 135.585C135.451 143.702 138.728 149.82 143.321 151.758C148.089 153.757 154.218 151.834 156.296 144.52C159.294 133.98 157.715 123.622 155.403 122.138Z" fill="#4FC4F8"/>
<path d="M144.476 135.343C142.896 135.54 140.936 137.872 140.629 141.855C140.322 145.837 142.75 147.851 145.207 146.837C147.518 145.883 147.899 142.475 147.899 140.325C147.899 138.175 146.919 135.025 144.476 135.343ZM95.6187 134.086C93.9511 133.602 90.85 136.267 90.3087 140.583C89.8845 143.914 91.1279 145.928 93.6293 146.125C97.1107 146.398 98.2078 141.961 98.12 139.25C98.0615 137.705 97.7982 134.722 95.6187 134.086ZM65.5583 163.661C64.0077 163.54 61.404 166.235 61.404 170.43C61.404 174.624 63.5104 176.442 65.9971 175.881C68.4839 175.306 68.9812 170.384 68.8203 168.431C68.6594 166.477 67.8549 163.842 65.5583 163.661ZM48.6777 131.33C46.5859 130.709 43.909 133.45 43.5872 136.539C43.2507 139.629 44.6404 141.87 46.8492 142.218C49.058 142.566 50.945 139.81 51.1644 136.6C51.3985 133.39 50.6232 131.89 48.6777 131.33ZM115.22 165.448C113.289 165.281 110.524 168.234 110.598 172.701C110.671 177.168 112.909 177.926 114.386 178.016C116.507 178.153 117.985 175.563 118.175 171.505C118.336 168.098 117.59 165.644 115.22 165.448Z" fill="#AEE6FD"/>
</g>
<defs>
<filter id="filter0_d_15_35" x="0" y="0" width="205" height="205" filterUnits="userSpaceOnUse" color-interpolation-filters="sRGB">
<feFlood flood-opacity="0" result="BackgroundImageFix"/>
<feColorMatrix in="SourceAlpha" type="matrix" values="0 0 0 0 0 0 0 0 0 0 0 0 0 0 0 0 0 0 127 0" result="hardAlpha"/>
<feOffset dx="5" dy="8"/>
<feGaussianBlur stdDeviation="7.5"/>
<feComposite in2="hardAlpha" operator="out"/>
<feColorMatrix type="matrix" values="0 0 0 0 0 0 0 0 0 0 0 0 0 0 0 0 0 0 0.31 0"/>
<feBlend mode="normal" in2="BackgroundImageFix" result="effect1_dropShadow_15_35"/>
<feBlend mode="normal" in="SourceGraphic" in2="effect1_dropShadow_15_35" result="shape"/>
</filter>
</defs>
</svg>
