<svg width="71" height="71" viewBox="0 0 71 71" fill="none" xmlns="http://www.w3.org/2000/svg">
<g filter="url(#filter0_d_3_32)">
<circle cx="30.5" cy="30.5" r="27.5" fill="white"/>
</g>
<path d="M28.5 34C26.6833 34 25.146 33.3707 23.888 32.112C22.63 30.8533 22.0007 29.316 22 27.5C21.9993 25.684 22.6287 24.1467 23.888 22.888C25.1473 21.6293 26.6847 21 28.5 21C30.3153 21 31.853 21.6293 33.113 22.888C34.373 24.1467 35.002 25.684 35 27.5C35 28.2333 34.8833 28.925 34.65 29.575C34.4167 30.225 34.1 30.8 33.7 31.3L39.3 36.9C39.4833 37.0833 39.575 37.3167 39.575 37.6C39.575 37.8833 39.4833 38.1167 39.3 38.3C39.1167 38.4833 38.8833 38.575 38.6 38.575C38.3167 38.575 38.0833 38.4833 37.9 38.3L32.3 32.7C31.8 33.1 31.225 33.4167 30.575 33.65C29.925 33.8833 29.2333 34 28.5 34ZM28.5 32C29.75 32 30.8127 31.5627 31.688 30.688C32.5633 29.8133 33.0007 28.7507 33 27.5C32.9993 26.2493 32.562 25.187 31.688 24.313C30.814 23.439 29.7513 23.0013 28.5 23C27.2487 22.9987 26.1863 23.4363 25.313 24.313C24.4397 25.1897 24.002 26.252 24 27.5C23.998 28.748 24.4357 29.8107 25.313 30.688C26.1903 31.5653 27.2527 32.0027 28.5 32Z" fill="black"/>
<defs>
<filter id="filter0_d_3_32" x="0.3" y="0.3" width="70.4" height="70.4" filterUnits="userSpaceOnUse" color-interpolation-filters="sRGB">
<feFlood flood-opacity="0" result="BackgroundImageFix"/>
<feColorMatrix in="SourceAlpha" type="matrix" values="0 0 0 0 0 0 0 0 0 0 0 0 0 0 0 0 0 0 127 0" result="hardAlpha"/>
<feOffset dx="5" dy="5"/>
<feGaussianBlur stdDeviation="3.85"/>
<feComposite in2="hardAlpha" operator="out"/>
<feColorMatrix type="matrix" values="0 0 0 0 0 0 0 0 0 0 0 0 0 0 0 0 0 0 0.45 0"/>
<feBlend mode="normal" in2="BackgroundImageFix" result="effect1_dropShadow_3_32"/>
<feBlend mode="normal" in="SourceGraphic" in2="effect1_dropShadow_3_32" result="shape"/>
</filter>
</defs>
</svg>
