<svg width="205" height="205" viewBox="0 0 205 205" fill="none" xmlns="http://www.w3.org/2000/svg">
<g filter="url(#filter0_d_15_41)">
<path d="M161.28 67.4379C161.28 67.4379 164.153 14.4795 120.538 7.6482C81.3273 1.5246 73.6281 40.8048 73.6281 40.8048C73.6281 40.8048 59.746 37.0507 49.1012 47.0823C38.5147 57.037 39.448 68.0841 39.448 68.0841C39.448 68.0841 12.9672 65.2685 10.2987 88.8858C7.80516 110.949 38.0044 104.81 38.0044 104.81L184.378 93.4401C184.378 93.4401 187.848 81.8391 176.781 73.0845C170.204 67.8687 161.28 67.4379 161.28 67.4379Z" fill="#E4EAEE"/>
<path d="M86.0384 83.0393C87.2633 82.6085 90.9525 87.5935 111.09 87.5935C132.03 87.5935 157.898 68.9612 157.898 68.9612C157.898 68.9612 157.796 76.2541 155.638 80.0083C152.765 84.9933 146.189 87.8089 146.189 87.8089C146.189 87.8089 155.638 91.917 168.149 90.84C177.642 90.0245 184.437 84.701 184.437 84.701C184.437 84.701 185.356 89.6399 184.846 94.4556C183.825 104.056 178.546 106.795 172.67 107.518C168.339 108.041 131.272 109.38 116.077 109.534C102.385 109.672 33.0184 109.857 25.8879 109.026C18.4948 108.165 12.9537 104.041 10.8976 97.3328C9.33735 92.2401 10.2852 87.3627 10.2852 87.3627C10.2852 87.3627 18.699 90.8246 28.7605 90.8246C38.3992 90.8246 45.5881 86.0549 45.5881 86.0549C45.5881 86.0549 53.1853 91.5477 65.9153 90.3938C76.9101 89.4091 86.0384 83.0393 86.0384 83.0393Z" fill="#B9CED2"/>
<path d="M154.748 122.673C154.748 122.673 158.028 117.042 158.903 115.904C159.778 114.765 161.266 113.519 163.118 114.611C164.969 115.688 164.342 117.919 163.832 118.888C163.322 119.858 160.245 126.151 160.245 126.151C160.245 126.151 166.049 126.212 167.332 126.212C168.615 126.212 170.919 127.289 170.919 129.674C170.919 131.736 170 133.028 167.784 133.136C165.567 133.244 160.041 133.244 160.041 133.244C160.041 133.244 163.016 138.382 163.89 139.952C164.765 141.521 164.867 143.414 163.584 144.552C161.936 146.014 159.793 145.198 158.51 143.091C157.547 141.49 154.558 136.921 154.558 136.921C154.558 136.921 151.015 142.337 150.096 143.521C149.177 144.706 147.486 146.122 145.78 144.768C143.68 143.091 144.89 141.198 145.78 139.736L149.571 133.459C149.571 133.459 143.111 133.29 141.259 133.29C139.407 133.29 137.818 132.213 137.92 129.982C138.022 127.705 139.364 126.781 141.565 126.735C143.767 126.674 149.629 126.674 149.629 126.674C149.629 126.674 146.042 121.258 145.109 119.689C144.19 118.119 144.088 116.119 145.517 114.98C146.961 113.842 148.652 114.488 149.731 115.95C150.81 117.411 154.748 122.673 154.748 122.673ZM98.0821 128.258C98.0821 128.258 101.363 122.627 102.238 121.489C103.113 120.35 104.6 119.104 106.452 120.196C108.304 121.273 107.677 123.504 107.167 124.474C106.656 125.443 103.58 131.736 103.58 131.736C103.58 131.736 109.383 131.797 110.666 131.797C111.95 131.797 114.253 132.874 114.253 135.259C114.253 137.321 113.335 138.613 111.118 138.721C108.917 138.829 103.375 138.829 103.375 138.829C103.375 138.829 106.35 143.968 107.225 145.537C108.1 147.106 108.202 148.999 106.919 150.137C105.271 151.599 103.127 150.783 101.844 148.676C100.882 147.075 97.8926 142.506 97.8926 142.506C97.8926 142.506 94.3491 147.922 93.4305 149.106C92.5118 150.291 90.8203 151.707 89.1142 150.353C87.0144 148.676 88.2247 146.783 89.1142 145.321L92.9055 139.044C92.9055 139.044 86.4457 138.875 84.5938 138.875C82.7419 138.875 81.1525 137.798 81.2545 135.567C81.3566 133.29 82.6982 132.367 84.9 132.32C87.1019 132.259 92.9639 132.259 92.9639 132.259C92.9639 132.259 89.3767 126.843 88.4434 125.274C87.5248 123.704 87.4227 121.704 88.8517 120.566C90.2954 119.427 91.9869 120.073 93.0659 121.535C94.145 122.997 98.0821 128.258 98.0821 128.258ZM67.4309 159.353C67.4309 159.353 70.7118 153.722 71.5867 152.584C72.4616 151.445 73.949 150.199 75.8009 151.291C77.6528 152.368 77.0258 154.599 76.5154 155.568C76.005 156.538 72.9283 162.831 72.9283 162.831C72.9283 162.831 78.7319 162.892 80.0151 162.892C81.2983 162.892 83.6022 163.969 83.6022 166.354C83.6022 168.416 82.6836 169.708 80.4671 169.816C78.2653 169.924 72.7241 169.924 72.7241 169.924C72.7241 169.924 75.6988 175.062 76.5737 176.632C77.4487 178.201 77.5507 180.094 76.2675 181.232C74.6198 182.694 72.4762 181.878 71.193 179.771C70.2306 178.17 67.2413 173.601 67.2413 173.601C67.2413 173.601 63.6979 179.017 62.7792 180.201C61.8606 181.386 60.1691 182.802 58.463 181.448C56.3632 179.771 57.5735 177.878 58.463 176.416L62.2543 170.139C62.2543 170.139 55.7945 169.97 53.9426 169.97C52.0907 169.97 50.5012 168.893 50.6033 166.662C50.7054 164.385 52.0469 163.461 54.2488 163.415C56.4507 163.354 62.3126 163.354 62.3126 163.354C62.3126 163.354 58.7254 157.938 57.7922 156.369C56.8735 154.799 56.7715 152.799 58.2005 151.66C59.6441 150.522 61.3356 151.168 62.4147 152.63C63.4937 154.091 67.4309 159.353 67.4309 159.353ZM42.2187 123.55C42.2187 123.55 45.5871 117.965 46.4766 116.842C47.3661 115.719 48.8826 114.503 50.7054 115.611C52.5427 116.719 51.8865 118.935 51.3616 119.904C50.8366 120.873 47.6577 127.105 47.6577 127.105C47.6577 127.105 53.4614 127.258 54.7446 127.274C56.0278 127.289 58.3171 128.412 58.288 130.797C58.2588 132.859 57.311 134.136 55.1091 134.213C52.9072 134.29 47.3661 134.197 47.3661 134.197C47.3661 134.197 50.2679 139.383 51.1137 140.967C51.9594 142.552 52.0469 144.444 50.7345 145.568C49.0722 146.999 46.9287 146.152 45.6746 144.029C44.7268 142.414 41.8104 137.798 41.8104 137.798C41.8104 137.798 38.1941 143.152 37.2462 144.337C36.2984 145.506 34.6069 146.906 32.9154 145.506C30.8302 143.798 32.0842 141.921 32.9883 140.475L36.8817 134.259C36.8817 134.259 30.4219 133.997 28.57 133.967C26.7181 133.936 25.1432 132.828 25.289 130.613C25.4203 128.335 26.7764 127.443 28.9783 127.428C31.1801 127.412 37.0421 127.505 37.0421 127.505C37.0421 127.505 33.5278 122.027 32.6238 120.442C31.7197 118.858 31.6468 116.858 33.105 115.734C34.5632 114.627 36.2401 115.304 37.3046 116.781C38.3399 118.227 42.2187 123.55 42.2187 123.55ZM129.973 158.923C129.973 158.923 133.254 153.291 134.129 152.153C135.004 151.014 136.491 149.768 138.343 150.86C140.195 151.937 139.568 154.168 139.057 155.138C138.547 156.107 135.47 162.4 135.47 162.4C135.47 162.4 141.274 162.461 142.557 162.461C143.84 162.461 146.144 163.538 146.144 165.923C146.144 167.985 145.226 169.277 143.009 169.385C140.793 169.493 135.266 169.493 135.266 169.493C135.266 169.493 138.241 174.632 139.116 176.201C139.991 177.77 140.093 179.663 138.809 180.801C137.162 182.263 135.018 181.448 133.735 179.34C132.773 177.74 129.783 173.17 129.783 173.17C129.783 173.17 126.24 178.586 125.321 179.771C124.403 180.955 122.711 182.371 121.005 181.017C118.905 179.34 120.115 177.447 121.005 175.986L124.796 169.708C124.796 169.708 118.336 169.539 116.485 169.539C114.633 169.539 113.043 168.462 113.145 166.231C113.247 163.954 114.589 163.031 116.791 162.985C118.993 162.938 124.855 162.923 124.855 162.923C124.855 162.923 121.267 157.507 120.334 155.938C119.415 154.368 119.313 152.368 120.742 151.23C122.186 150.091 123.878 150.737 124.957 152.199C126.036 153.661 129.973 158.923 129.973 158.923Z" fill="#92C9F4"/>
</g>
<defs>
<filter id="filter0_d_15_41" x="0" y="0" width="205" height="205" filterUnits="userSpaceOnUse" color-interpolation-filters="sRGB">
<feFlood flood-opacity="0" result="BackgroundImageFix"/>
<feColorMatrix in="SourceAlpha" type="matrix" values="0 0 0 0 0 0 0 0 0 0 0 0 0 0 0 0 0 0 127 0" result="hardAlpha"/>
<feOffset dx="5" dy="8"/>
<feGaussianBlur stdDeviation="7.5"/>
<feComposite in2="hardAlpha" operator="out"/>
<feColorMatrix type="matrix" values="0 0 0 0 0 0 0 0 0 0 0 0 0 0 0 0 0 0 0.31 0"/>
<feBlend mode="normal" in2="BackgroundImageFix" result="effect1_dropShadow_15_41"/>
<feBlend mode="normal" in="SourceGraphic" in2="effect1_dropShadow_15_41" result="shape"/>
</filter>
</defs>
</svg>
