<svg width="205" height="206" viewBox="0 0 205 206" fill="none" xmlns="http://www.w3.org/2000/svg">
<g filter="url(#filter0_d_24_3)">
<path d="M106.265 35.2268C133.983 35.2268 149.714 54.5263 151.998 77.8384H152.698C156.935 77.8323 161.131 78.7043 165.048 80.4046C168.964 82.1049 172.524 84.6001 175.524 87.7477C178.524 90.8954 180.904 94.6338 182.53 98.7495C184.156 102.865 184.995 107.277 185 111.734C184.994 116.19 184.154 120.602 182.528 124.716C180.901 128.831 178.52 132.568 175.521 135.715C172.521 138.862 168.962 141.356 165.046 143.056C161.13 144.755 156.934 145.627 152.698 145.621H137.413C142.164 135.378 135.208 122.567 123.589 122.567H122.399C123.953 119.065 124.258 115.093 123.259 111.375C122.26 107.656 120.024 104.44 116.958 102.311C113.891 100.183 110.2 99.2856 106.557 99.7821C102.914 100.279 99.5627 102.136 97.1134 105.016L77.5588 127.905C75.5114 130.263 74.1855 133.214 73.7533 136.375C73.3212 139.536 73.8026 142.761 75.1352 145.63H59.824C55.587 145.636 51.3904 144.764 47.4738 143.064C43.5572 141.364 39.9975 138.869 36.9978 135.721C33.9981 132.573 31.6173 128.835 29.9914 124.719C28.3655 120.603 27.5262 116.191 27.5216 111.734C27.5262 107.277 28.3655 102.865 29.9914 98.7495C31.6173 94.6338 33.9981 90.8954 36.9978 87.7477C39.9975 84.6001 43.5572 82.1049 47.4738 80.4046C51.3904 78.7043 55.587 77.8323 59.824 77.8384H60.5239C62.825 54.3698 78.5475 35.2268 106.265 35.2268ZM79.9998 7.53392C94.1474 7.53392 106.685 15.0347 114.122 26.5112C111.514 26.1938 108.891 26.0309 106.265 26.0235C80.0698 26.0235 61.0226 41.4575 54.3207 64.7972L53.7257 67.006L53.2183 69.1964L51.4159 69.5553C44.5175 71.0975 38.1148 74.4877 32.8279 79.3975C27.5411 84.3073 23.5494 90.5703 21.2396 97.5796C16.5883 93.827 13.1401 88.6668 11.3584 82.7923C9.57679 76.9179 9.54699 70.6106 11.273 64.7178C12.9991 58.825 16.3983 53.6291 21.014 49.828C25.6297 46.0269 31.2408 43.8029 37.0933 43.4546L39.3419 43.3994C41.0337 33.3495 46.0356 24.247 53.4701 17.6888C60.9047 11.1306 70.2971 7.53542 79.9998 7.53392Z" fill="#373737"/>
<path d="M112.395 110.718C113.689 111.942 114.467 113.657 114.559 115.485C114.651 117.312 114.049 119.104 112.885 120.464L103.165 131.84H123.078C124.315 131.838 125.526 132.204 126.573 132.895C127.621 133.586 128.461 134.574 128.998 135.746C129.535 136.917 129.746 138.224 129.607 139.516C129.468 140.809 128.986 142.033 128.214 143.05L100.111 180.148C99.0105 181.523 97.443 182.392 95.7424 182.57C94.0418 182.748 92.3423 182.221 91.0054 181.101C89.6685 179.981 88.7996 178.357 88.5835 176.574C88.3675 174.791 88.8214 172.989 89.8486 171.552L109.464 145.645H88.4399C87.1723 145.645 85.9318 145.258 84.8685 144.532C83.8052 143.806 82.9645 142.772 82.4482 141.554C81.9318 140.336 81.7618 138.987 81.9587 137.67C82.1556 136.353 82.711 135.124 83.5578 134.131L103.121 111.233C103.698 110.558 104.395 110.01 105.173 109.618C105.951 109.227 106.795 109.001 107.657 108.953C108.518 108.905 109.38 109.037 110.193 109.339C111.006 109.642 111.755 110.111 112.395 110.718Z" fill="#FFAB31"/>
</g>
<defs>
<filter id="filter0_d_24_3" x="0" y="0.53392" width="205" height="205.07" filterUnits="userSpaceOnUse" color-interpolation-filters="sRGB">
<feFlood flood-opacity="0" result="BackgroundImageFix"/>
<feColorMatrix in="SourceAlpha" type="matrix" values="0 0 0 0 0 0 0 0 0 0 0 0 0 0 0 0 0 0 127 0" result="hardAlpha"/>
<feOffset dx="5" dy="8"/>
<feGaussianBlur stdDeviation="7.5"/>
<feComposite in2="hardAlpha" operator="out"/>
<feColorMatrix type="matrix" values="0 0 0 0 0 0 0 0 0 0 0 0 0 0 0 0 0 0 0.31 0"/>
<feBlend mode="normal" in2="BackgroundImageFix" result="effect1_dropShadow_24_3"/>
<feBlend mode="normal" in="SourceGraphic" in2="effect1_dropShadow_24_3" result="shape"/>
</filter>
</defs>
</svg>
