<svg width="79" height="73" viewBox="0 0 79 73" fill="none" xmlns="http://www.w3.org/2000/svg">
<g filter="url(#filter0_d_4_43)">
<path d="M11.125 20.6667H16.5417M21.9584 14.8627V13.8958C21.9584 12.5567 22.3555 11.2476 23.0994 10.1342C23.8434 9.02071 24.9009 8.15287 26.1381 7.6404C27.3753 7.12793 28.7367 6.99385 30.0501 7.2551C31.3635 7.51636 32.57 8.16122 33.5169 9.10813C34.4638 10.0551 35.1087 11.2615 35.3699 12.5749C35.6312 13.8883 35.4971 15.2497 34.9846 16.4869C34.4722 17.7241 33.6043 18.7816 32.4909 19.5256C31.3774 20.2696 30.0683 20.6667 28.7292 20.6667H24.6667M13.8334 36.9167H16.5417M43.625 45.0417V46.3958C43.625 48.2706 44.181 50.1033 45.2225 51.6622C46.2641 53.221 47.7446 54.436 49.4767 55.1534C51.2088 55.8709 53.1147 56.0586 54.9535 55.6929C56.7923 55.3271 58.4813 54.4243 59.807 53.0986C61.1327 51.7729 62.0355 50.0839 62.4012 48.2451C62.767 46.4064 62.5792 44.5004 61.8618 42.7683C61.1443 41.0362 59.9294 39.5558 58.3705 38.5142C56.8117 37.4726 54.979 36.9167 53.1042 36.9167H27.375M8.41669 28.7917H24.6667M43.625 20.6667V19.3125C43.625 17.4377 44.181 15.605 45.2225 14.0462C46.2641 12.4873 47.7446 11.2724 49.4767 10.5549C51.2088 9.83744 53.1147 9.64972 54.9535 10.0155C56.7923 10.3812 58.4813 11.284 59.807 12.6097C61.1327 13.9354 62.0355 15.6244 62.4012 17.4632C62.767 19.302 62.5792 21.2079 61.8618 22.94C61.1443 24.6721 59.9294 26.1526 58.3705 27.1941C56.8117 28.2357 54.979 28.7917 53.1042 28.7917H36.1771" stroke="white" stroke-width="3" stroke-linecap="round" shape-rendering="crispEdges"/>
</g>
<defs>
<filter id="filter0_d_4_43" x="0.916687" y="0.625" width="77.1667" height="71.75" filterUnits="userSpaceOnUse" color-interpolation-filters="sRGB">
<feFlood flood-opacity="0" result="BackgroundImageFix"/>
<feColorMatrix in="SourceAlpha" type="matrix" values="0 0 0 0 0 0 0 0 0 0 0 0 0 0 0 0 0 0 127 0" result="hardAlpha"/>
<feOffset dx="4" dy="5"/>
<feGaussianBlur stdDeviation="5"/>
<feComposite in2="hardAlpha" operator="out"/>
<feColorMatrix type="matrix" values="0 0 0 0 0 0 0 0 0 0 0 0 0 0 0 0 0 0 0.24 0"/>
<feBlend mode="normal" in2="BackgroundImageFix" result="effect1_dropShadow_4_43"/>
<feBlend mode="normal" in="SourceGraphic" in2="effect1_dropShadow_4_43" result="shape"/>
</filter>
</defs>
</svg>
